<?xml version="1.0" standalone="no"?>
<!DOCTYPE svg PUBLIC "-//W3C//DTD SVG 20010904//EN"
 "http://www.w3.org/TR/2001/REC-SVG-20010904/DTD/svg10.dtd">
<svg version="1.0" xmlns="http://www.w3.org/2000/svg"
 width="300.000000pt" height="300.000000pt" viewBox="0 0 300.000000 300.000000"
 preserveAspectRatio="xMidYMid meet">
<g transform="translate(0.000000,300.000000) scale(0.100000,-0.100000)"
fill="#000000" stroke="none">
<path d="M1230 2919 c-37 -15 -88 -68 -100 -103 -11 -36 -40 -209 -35 -214 2
-2 29 2 60 9 63 14 68 20 80 108 7 53 32 91 58 91 17 0 1305 -198 1335 -205
12 -3 27 -16 33 -28 7 -17 -25 -249 -136 -967 -80 -520 -148 -953 -151 -963
-7 -22 -47 -49 -65 -43 -8 2 -33 7 -56 10 l-43 6 0 -64 0 -63 60 -7 c34 -4 76
-2 100 4 48 13 104 66 119 112 14 43 301 1906 301 1953 0 67 -50 137 -117 163
-37 15 -1326 212 -1378 211 -22 0 -51 -5 -65 -10z"/>
<path d="M784 2426 c-359 -89 -663 -170 -677 -179 -34 -22 -65 -75 -72 -122
-5 -32 44 -242 230 -993 129 -525 239 -961 244 -970 15 -28 64 -70 94 -81 16
-6 46 -11 67 -11 21 0 330 72 687 160 356 88 651 160 655 160 4 0 24 15 44 32
43 38 64 82 64 133 0 53 -458 1904 -481 1945 -11 20 -36 46 -55 60 -70 47 -87
44 -800 -134z m746 44 c10 -5 23 -25 29 -42 5 -18 112 -446 236 -951 214 -871
225 -920 210 -943 -8 -13 -18 -24 -21 -24 -3 0 -299 -72 -657 -160 -384 -95
-661 -159 -675 -155 -12 3 -27 16 -32 28 -17 37 -460 1847 -460 1877 0 15 8
34 18 42 13 13 1270 333 1320 337 7 1 22 -3 32 -9z"/>
<path d="M603 1879 c-40 -16 -55 -27 -59 -46 -10 -40 7 -58 58 -61 l46 -3 42
-152 c57 -210 59 -216 80 -227 42 -22 90 2 90 46 0 37 -112 429 -127 447 -21
22 -65 21 -130 -4z"/>
<path d="M1317 1817 c-28 -23 -509 -886 -503 -903 3 -9 15 -14 28 -12 18 2 73
92 274 447 139 244 250 450 247 457 -7 19 -29 24 -46 11z"/>
<path d="M1267 1279 c-79 -42 -121 -165 -73 -218 41 -45 87 -17 100 61 11 61
48 85 80 52 31 -30 19 -81 -55 -235 -75 -156 -79 -180 -34 -201 18 -8 51 -2
156 27 74 20 142 41 151 46 26 14 32 47 14 74 -19 29 -37 30 -118 9 -33 -8
-62 -13 -65 -10 -3 3 9 29 26 60 39 68 71 159 71 203 0 47 -35 110 -73 133
-43 27 -129 26 -180 -1z"/>
<path d="M1960 2534 c-66 -29 -106 -83 -136 -186 -14 -45 -13 -56 8 -148 12
-55 27 -99 32 -97 31 10 49 59 56 149 9 110 23 165 58 233 35 66 35 65 25 65
-4 -1 -24 -8 -43 -16z"/>
<path d="M2067 2351 c-10 -34 -34 -82 -61 -118 -59 -80 -74 -130 -57 -190 13
-50 43 -98 69 -112 16 -8 17 -1 17 74 0 78 2 85 36 136 60 88 73 156 45 223
-22 52 -32 50 -49 -13z"/>
<path d="M1860 2035 c0 -3 9 -44 21 -90 l21 -84 57 -8 c96 -13 322 -10 359 6
66 28 27 71 -99 109 -36 11 -86 23 -111 27 l-45 7 1 -58 c1 -49 -2 -59 -18
-62 -24 -5 -84 52 -107 104 -12 26 -28 44 -41 48 -29 7 -38 7 -38 1z"/>
<path d="M2315 1797 c-14 -8 -76 -12 -208 -11 -130 0 -187 -3 -184 -10 2 -6
30 -118 61 -248 32 -131 61 -238 66 -238 5 0 30 25 55 55 46 53 49 55 99 55
114 1 213 40 254 101 20 28 23 44 20 92 -5 70 -40 112 -106 130 -44 12 -44 12
-38 49 4 21 5 38 4 38 -2 0 -12 -6 -23 -13z m69 -158 c56 -44 22 -127 -60
-147 -67 -17 -116 -24 -113 -15 2 4 24 47 48 96 39 77 47 87 71 87 15 0 39 -9
54 -21z"/>
</g>
</svg>
